<svg width="60" height="54" viewBox="0 0 60 54" fill="none" xmlns="http://www.w3.org/2000/svg">
<path d="M14.6109 47.56C14.5975 47.72 14.5775 47.8867 14.5509 48.06C14.5242 48.2333 14.4775 48.3933 14.4109 48.54C14.3442 48.7 14.2575 48.82 14.1509 48.9C14.0042 49.0333 13.8309 49.1067 13.6309 49.12C13.4442 49.1867 13.2642 49.2067 13.0909 49.18C12.9175 49.1533 12.7575 49.1067 12.6109 49.04C12.4242 48.92 12.2842 48.78 12.1909 48.62C12.1109 48.4467 12.0509 48.2667 12.0109 48.08C11.9709 47.8933 11.9509 47.7 11.9509 47.5C11.9509 47.3 11.9509 47.1133 11.9509 46.94V45.38L11.9309 42.32C11.9309 42.1067 11.9309 41.94 11.9309 41.82C11.9309 41.7 11.9309 41.5933 11.9309 41.5C11.9309 41.3933 11.9242 41.28 11.9109 41.16C11.9109 41.0267 11.9109 40.84 11.9109 40.6C11.9109 40.56 11.9109 40.4933 11.9109 40.4C11.9242 40.2933 11.9175 40.02 11.8909 39.58C11.3709 40.4467 10.9375 41.1467 10.5909 41.68C10.2575 42.2 9.97086 42.6067 9.73086 42.9C9.50419 43.18 9.30419 43.3733 9.13086 43.48C8.95753 43.5733 8.77753 43.6267 8.59086 43.64C8.48419 43.6533 8.37753 43.6333 8.27086 43.58C8.16419 43.5267 8.05753 43.46 7.95086 43.38C7.85753 43.3 7.76419 43.22 7.67086 43.14C7.59086 43.0467 7.52419 42.96 7.47086 42.88C7.15086 42.48 6.79086 42 6.39086 41.44C5.99086 40.88 5.57753 40.2 5.15086 39.4C5.15086 39.4133 5.14419 39.6333 5.13086 40.06C5.13086 40.4867 5.13086 41.02 5.13086 41.66C5.13086 42.2867 5.12419 42.9667 5.11086 43.7C5.11086 44.42 5.10419 45.0933 5.09086 45.72C5.09086 46.3467 5.08419 46.8733 5.07086 47.3C5.05753 47.7133 5.04419 47.92 5.03086 47.92C5.03086 48.1467 4.97753 48.36 4.87086 48.56C4.76419 48.7467 4.61753 48.9 4.43086 49.02C4.25753 49.14 4.05086 49.2067 3.81086 49.22C3.57086 49.2333 3.31086 49.1667 3.03086 49.02C2.85753 48.9133 2.72419 48.76 2.63086 48.56C2.55086 48.36 2.49753 48.1733 2.47086 48C2.45753 47.8133 2.44419 47.6333 2.43086 47.46C2.43086 47.2867 2.43086 47.1067 2.43086 46.92L2.45086 45.36L2.47086 42.28V39.6C2.47086 38.44 2.51086 37.3 2.59086 36.18C2.59086 36.0333 2.60419 35.9 2.63086 35.78C2.67086 35.6467 2.71753 35.52 2.77086 35.4C2.87753 35.1867 3.01753 35.0267 3.19086 34.92C3.39086 34.8 3.60419 34.74 3.83086 34.74C3.92419 34.74 4.01086 34.7467 4.09086 34.76C4.18419 34.76 4.27086 34.7667 4.35086 34.78C4.61753 34.8333 4.84419 34.9933 5.03086 35.26C5.23086 35.5133 5.41753 35.7333 5.59086 35.92C5.69753 36.04 5.81086 36.1867 5.93086 36.36C6.05086 36.5333 6.17086 36.7133 6.29086 36.9C6.41086 37.0867 6.52419 37.2667 6.63086 37.44C6.73753 37.6133 6.83086 37.7667 6.91086 37.9C7.25753 38.46 7.56419 38.9733 7.83086 39.44C8.11086 39.9067 8.37086 40.3067 8.61086 40.64C8.65086 40.6 8.69753 40.5467 8.75086 40.48C8.80419 40.4 8.85753 40.32 8.91086 40.24C8.97753 40.1467 9.03086 40.06 9.07086 39.98C9.12419 39.9 9.16419 39.8333 9.19086 39.78C9.32419 39.5667 9.45753 39.36 9.59086 39.16C9.72419 38.9467 9.86419 38.7267 10.0109 38.5C10.1709 38.26 10.3309 38 10.4909 37.72C10.6642 37.44 10.8642 37.12 11.0909 36.76C11.1842 36.6 11.3042 36.4067 11.4509 36.18C11.5975 35.9533 11.7642 35.7333 11.9509 35.52C12.1375 35.3067 12.3309 35.1267 12.5309 34.98C12.7442 34.82 12.9575 34.74 13.1709 34.74C13.2775 34.74 13.3709 34.7467 13.4509 34.76C13.5309 34.76 13.6109 34.7667 13.6909 34.78C13.8509 34.7933 14.0042 34.8667 14.1509 35C14.2575 35.1067 14.3375 35.22 14.3909 35.34C14.4442 35.5133 14.4775 35.66 14.4909 35.78C14.5042 35.8733 14.5109 35.96 14.5109 36.04C14.5242 36.12 14.5309 36.2 14.5309 36.28C14.5309 37.0267 14.5375 37.7667 14.5509 38.5C14.5642 39.2333 14.5709 39.9733 14.5709 40.72C14.5709 41.6267 14.5709 42.56 14.5709 43.52C14.5842 44.48 14.5909 45.4133 14.5909 46.32C14.5909 46.5067 14.5975 46.7067 14.6109 46.92C14.6242 47.1333 14.6242 47.3467 14.6109 47.56ZM23.1595 46.26C23.3195 46.22 23.4795 46.1933 23.6395 46.18C23.8128 46.1667 23.9661 46.1867 24.0995 46.24C24.2461 46.2933 24.3661 46.3867 24.4595 46.52C24.5528 46.64 24.5995 46.8133 24.5995 47.04C24.5995 47.2 24.5595 47.3533 24.4795 47.5C24.3995 47.6467 24.2995 47.78 24.1795 47.9C24.0595 48.02 23.9261 48.1267 23.7795 48.22C23.6328 48.3 23.4928 48.3667 23.3595 48.42C22.9728 48.5933 22.5261 48.7267 22.0195 48.82C21.5261 48.9133 21.0128 48.9467 20.4795 48.92C19.7595 48.8933 19.0661 48.7533 18.3995 48.5C17.7461 48.2333 17.2328 47.8 16.8595 47.2C16.5128 46.6133 16.3061 45.96 16.2395 45.24C16.1728 44.52 16.2061 43.84 16.3395 43.2C16.4861 42.4267 16.7328 41.8 17.0795 41.32C17.4395 40.8267 17.8661 40.4333 18.3595 40.14C18.9595 39.7933 19.6328 39.6133 20.3795 39.6C21.1261 39.5867 21.8395 39.7333 22.5195 40.04C22.9728 40.24 23.3795 40.5133 23.7395 40.86C24.0995 41.1933 24.3728 41.6 24.5595 42.08C24.6128 42.2 24.6528 42.3467 24.6795 42.52C24.7195 42.6933 24.7461 42.88 24.7595 43.08C24.7728 43.2667 24.7728 43.4533 24.7595 43.64C24.7461 43.8267 24.7128 43.9933 24.6595 44.14C24.5795 44.38 24.4795 44.5667 24.3595 44.7C24.2395 44.8333 24.0861 44.9333 23.8995 45C23.7128 45.0667 23.4861 45.1133 23.2195 45.14C22.9661 45.1533 22.6595 45.1667 22.2995 45.18C21.9795 45.1933 21.6795 45.2 21.3995 45.2C21.1195 45.2 20.8328 45.2 20.5395 45.2C20.2461 45.1867 19.9395 45.18 19.6195 45.18C19.3128 45.1667 18.9661 45.1533 18.5795 45.14C18.5395 45.4067 18.5728 45.64 18.6795 45.84C18.7995 46.0267 18.9595 46.1867 19.1595 46.32C19.3595 46.44 19.5861 46.5333 19.8395 46.6C20.0928 46.6667 20.3395 46.7067 20.5795 46.72C21.0328 46.7467 21.4661 46.7133 21.8795 46.62C22.2928 46.5133 22.7195 46.3933 23.1595 46.26ZM22.2995 42.38C22.0461 42.0867 21.7795 41.8733 21.4995 41.74C21.2861 41.6467 21.0595 41.6067 20.8195 41.62C20.5928 41.62 20.3728 41.6533 20.1595 41.72C19.7728 41.8133 19.4461 42.0133 19.1795 42.32C19.1528 42.3467 19.1061 42.4133 19.0395 42.52C18.9728 42.6133 18.9061 42.7133 18.8395 42.82C18.7861 42.9267 18.7461 43.0267 18.7195 43.12C18.6928 43.2133 18.7061 43.26 18.7595 43.26H22.6795C22.6661 43.0733 22.6328 42.92 22.5795 42.8C22.5261 42.6667 22.4328 42.5267 22.2995 42.38ZM32.6162 35.02C32.8695 34.9533 33.0895 34.9467 33.2762 35C33.4762 35.04 33.6428 35.1267 33.7762 35.26C33.9228 35.3933 34.0295 35.56 34.0962 35.76C34.1762 35.96 34.2162 36.18 34.2162 36.42C34.2295 37.0867 34.2295 37.6067 34.2162 37.98C34.2162 38.3533 34.2162 38.68 34.2162 38.96V45.1C34.2162 45.82 34.2162 46.42 34.2162 46.9C34.2162 47.38 34.1895 47.7733 34.1362 48.08C34.0962 48.3733 34.0162 48.5933 33.8962 48.74C33.7895 48.8867 33.6228 48.9867 33.3962 49.04C33.1695 49.1067 32.8695 49.14 32.4962 49.14C32.1362 49.14 31.6828 49.14 31.1362 49.14C29.6962 49.14 28.5562 48.8 27.7162 48.12C26.8895 47.44 26.4495 46.36 26.3962 44.88C26.3695 44.24 26.4495 43.6533 26.6362 43.12C26.8228 42.5867 27.0962 42.1333 27.4562 41.76C27.8295 41.3733 28.2828 41.08 28.8162 40.88C29.3628 40.6667 29.9828 40.5667 30.6762 40.58H31.7762V37C31.7762 36.7867 31.7762 36.58 31.7762 36.38C31.7762 36.1667 31.7962 35.9733 31.8362 35.8C31.8762 35.6133 31.9562 35.4533 32.0762 35.32C32.1962 35.1867 32.3762 35.0867 32.6162 35.02ZM29.1362 46.12C29.4162 46.5067 29.9228 46.72 30.6562 46.76C30.8028 46.7733 30.9428 46.78 31.0762 46.78C31.2095 46.7667 31.3295 46.7467 31.4362 46.72C31.5562 46.7067 31.6695 46.6867 31.7762 46.66V42.96C31.3095 42.88 30.8828 42.8333 30.4962 42.82C30.1228 42.7933 29.7495 42.9267 29.3762 43.22C29.1762 43.38 29.0228 43.5867 28.9162 43.84C28.8095 44.08 28.7495 44.34 28.7362 44.62C28.7228 44.8867 28.7495 45.1533 28.8162 45.42C28.8828 45.6867 28.9895 45.92 29.1362 46.12ZM38.3493 41.42C38.3493 41.7933 38.3493 42.2133 38.3493 42.68C38.3626 43.1467 38.3693 43.6333 38.3693 44.14C38.3693 44.6333 38.3693 45.1267 38.3693 45.62C38.3693 46.1 38.3626 46.5467 38.3493 46.96C38.336 47.16 38.316 47.38 38.2893 47.62C38.2626 47.8467 38.2093 48.06 38.1293 48.26C38.0493 48.46 37.9226 48.6267 37.7493 48.76C37.5893 48.88 37.3693 48.9333 37.0893 48.92C36.676 48.8933 36.376 48.7133 36.1893 48.38C36.016 48.0467 35.916 47.58 35.8893 46.98C35.8893 46.6733 35.8826 46.32 35.8693 45.92C35.8693 45.52 35.8626 45.1133 35.8493 44.7C35.8493 44.2867 35.8493 43.8867 35.8493 43.5C35.8493 43.1 35.8493 42.74 35.8493 42.42C35.8493 42.2333 35.8426 42.0067 35.8293 41.74C35.8293 41.4733 35.836 41.2 35.8493 40.92C35.8626 40.64 35.896 40.3733 35.9493 40.12C36.0026 39.8533 36.0893 39.6333 36.2093 39.46C36.3026 39.3533 36.436 39.2733 36.6093 39.22C36.7826 39.1533 36.9626 39.12 37.1493 39.12C37.3493 39.12 37.536 39.1533 37.7093 39.22C37.896 39.2867 38.0293 39.38 38.1093 39.5C38.1626 39.58 38.2026 39.6933 38.2293 39.84C38.256 39.9867 38.276 40.1533 38.2893 40.34C38.316 40.5133 38.3293 40.7 38.3293 40.9C38.3426 41.0867 38.3493 41.26 38.3493 41.42ZM37.5893 37.38C37.176 37.4867 36.8293 37.4467 36.5493 37.26C36.2826 37.06 36.116 36.7667 36.0493 36.38C35.996 36.1 36.016 35.8533 36.1093 35.64C36.2026 35.4267 36.3426 35.2667 36.5293 35.16C36.716 35.04 36.9293 34.9867 37.1693 35C37.4093 35.0133 37.6493 35.1067 37.8893 35.28C38.116 35.44 38.276 35.6267 38.3693 35.84C38.476 36.0533 38.5093 36.26 38.4693 36.46C38.4426 36.66 38.356 36.8467 38.2093 37.02C38.0626 37.18 37.856 37.3 37.5893 37.38ZM45.8466 40.54C46.0733 40.6067 46.22 40.7333 46.2866 40.92C46.3533 41.0933 46.3733 41.28 46.3466 41.48C46.2666 41.8933 46.04 42.1467 45.6666 42.24C45.4533 42.2933 45.2333 42.32 45.0066 42.32C44.7933 42.32 44.5733 42.3267 44.3466 42.34V46.96C44.3466 47.28 44.3266 47.6067 44.2866 47.94C44.2866 48.06 44.2533 48.1867 44.1866 48.32C44.16 48.3867 44.14 48.4267 44.1266 48.44C44.1266 48.4667 44.1133 48.5067 44.0866 48.56C44.0066 48.7067 43.9 48.8267 43.7666 48.92C43.4733 49.08 43.16 49.12 42.8266 49.04C42.6266 49 42.4733 48.9333 42.3666 48.84C42.2466 48.7467 42.16 48.6333 42.1066 48.5C42.08 48.4333 42.06 48.3667 42.0466 48.3C42.0333 48.2333 42.0133 48.1667 41.9866 48.1C41.9733 48.0333 41.96 47.9733 41.9466 47.92C41.9466 47.8533 41.9466 47.8 41.9466 47.76V46.6C41.9466 45.9067 41.9466 45.1867 41.9466 44.44C41.96 43.6933 41.9666 42.9733 41.9666 42.28C41.66 42.2667 41.34 42.26 41.0066 42.26C40.6866 42.2467 40.4533 42.1667 40.3066 42.02C40.2266 41.94 40.1733 41.84 40.1466 41.72C40.12 41.5867 40.1066 41.4533 40.1066 41.32C40.12 41.1867 40.1466 41.0667 40.1866 40.96C40.2266 40.84 40.28 40.7533 40.3466 40.7C40.52 40.54 40.6733 40.4533 40.8066 40.44C40.9533 40.4133 41.1333 40.3933 41.3466 40.38C41.3733 40.38 41.46 40.38 41.6066 40.38C41.7666 40.3667 41.8666 40.36 41.9066 40.36C41.92 39.9067 41.9333 39.4533 41.9466 39C41.96 38.5467 42 38.1333 42.0666 37.76C42.1466 37.3733 42.26 37.04 42.4066 36.76C42.5666 36.4667 42.8066 36.2467 43.1266 36.1C43.5133 35.9267 43.9533 35.82 44.4466 35.78C44.94 35.74 45.3866 35.8 45.7866 35.96C45.9733 36.0267 46.1533 36.16 46.3266 36.36C46.5133 36.56 46.6 36.78 46.5866 37.02C46.5733 37.26 46.5266 37.48 46.4466 37.68C46.3666 37.88 46.1933 38.0133 45.9266 38.08C45.8066 38.1067 45.68 38.12 45.5466 38.12C45.4266 38.1067 45.3 38.1 45.1666 38.1C45.0333 38.1 44.9066 38.12 44.7866 38.16C44.68 38.1867 44.5866 38.2467 44.5066 38.34C44.44 38.42 44.3933 38.5267 44.3666 38.66C44.3533 38.7933 44.34 38.9333 44.3266 39.08C44.3133 39.2267 44.3066 39.3733 44.3066 39.52C44.32 39.6533 44.3266 39.7667 44.3266 39.86V40.36C44.6333 40.3867 44.9133 40.4067 45.1666 40.42C45.4333 40.4333 45.66 40.4733 45.8466 40.54ZM57.3921 40.08C57.5121 40.2667 57.5654 40.4667 57.5521 40.68C57.5521 40.9867 57.4988 41.2533 57.3921 41.48C57.3654 41.5467 57.3254 41.6333 57.2721 41.74C57.2321 41.8467 57.1854 41.96 57.1321 42.08C57.0921 42.2 57.0454 42.3133 56.9921 42.42C56.9388 42.5267 56.8988 42.6067 56.8721 42.66L56.8321 42.76C56.6454 43.1733 56.4654 43.5733 56.2921 43.96C56.1188 44.3467 55.9254 44.76 55.7121 45.2C55.4988 45.6267 55.2921 46.0467 55.0921 46.46C54.9054 46.86 54.7188 47.2533 54.5321 47.64C54.4788 47.7467 54.4321 47.8533 54.3921 47.96C54.3521 48.0533 54.2988 48.1533 54.2321 48.26L53.2721 50.32C53.0988 50.6667 52.9321 51.0067 52.7721 51.34C52.6254 51.6733 52.4588 52.0067 52.2721 52.34C52.2321 52.4067 52.1921 52.4667 52.1521 52.52C52.1254 52.5867 52.0988 52.6533 52.0721 52.72C51.9788 52.88 51.8388 53.0333 51.6521 53.18C51.4788 53.34 51.2921 53.4267 51.0921 53.44C50.7321 53.4667 50.4188 53.36 50.1521 53.12C49.9921 53.0267 49.8654 52.8933 49.7721 52.72C49.7188 52.6 49.6921 52.4467 49.6921 52.26C49.7054 52.18 49.7121 52.1 49.7121 52.02C49.7254 51.9533 49.7388 51.8867 49.7521 51.82C49.7788 51.7533 49.7988 51.6867 49.8121 51.62C49.8254 51.5533 49.8454 51.5 49.8721 51.46C49.9121 51.3533 49.9454 51.3 49.9721 51.3L51.4321 48.14C51.3654 47.9933 51.2988 47.8467 51.2321 47.7C51.1654 47.54 51.1054 47.4 51.0521 47.28C50.8788 46.8667 50.6921 46.4333 50.4921 45.98C50.3054 45.5133 50.1121 45.0533 49.9121 44.6C49.7121 44.1333 49.5054 43.68 49.2921 43.24C49.0788 42.8 48.8654 42.38 48.6521 41.98C48.5721 41.8467 48.4988 41.7067 48.4321 41.56C48.3654 41.4 48.3121 41.2467 48.2721 41.1C48.2321 40.94 48.2188 40.78 48.2321 40.62C48.2454 40.46 48.3054 40.3 48.4121 40.14C48.5188 39.94 48.6588 39.8 48.8321 39.72C49.0054 39.6267 49.1854 39.5867 49.3721 39.6C49.5721 39.6 49.7588 39.64 49.9321 39.72C50.1054 39.8 50.2454 39.9067 50.3521 40.04C50.5788 40.28 50.7588 40.5467 50.8921 40.84C51.0254 41.1333 51.1521 41.4333 51.2721 41.74C51.5254 42.2733 51.7854 42.8333 52.0521 43.42C52.3188 44.0067 52.5854 44.58 52.8521 45.14L53.8921 42.94C53.9988 42.7267 54.0921 42.52 54.1721 42.32C54.2654 42.12 54.3588 41.9267 54.4521 41.74C54.5588 41.5133 54.6588 41.28 54.7521 41.04C54.8588 40.8 54.9788 40.58 55.1121 40.38C55.1388 40.3267 55.1654 40.28 55.1921 40.24C55.2188 40.2 55.2454 40.1533 55.2721 40.1C55.3921 39.94 55.4988 39.8133 55.5921 39.72C55.6588 39.6667 55.7121 39.6267 55.7521 39.6C55.8054 39.56 55.8654 39.5333 55.9321 39.52C56.0254 39.4933 56.1121 39.48 56.1921 39.48C56.2854 39.4667 56.3721 39.4667 56.4521 39.48C56.5854 39.52 56.7454 39.58 56.9321 39.66C57.1321 39.74 57.2854 39.88 57.3921 40.08Z" fill="white"/>
<path d="M29.6666 7.66667V14.3333" stroke="white" stroke-width="2" stroke-linecap="round" stroke-linejoin="round"/>
<path d="M32.9999 31V26C32.9999 25.1159 32.6487 24.2681 32.0236 23.643C31.3985 23.0178 30.5506 22.6667 29.6666 22.6667C28.7825 22.6667 27.9347 23.0178 27.3096 23.643C26.6844 24.2681 26.3333 25.1159 26.3333 26V31" stroke="white" stroke-width="2" stroke-linecap="round" stroke-linejoin="round"/>
<path d="M32.9999 11H26.3333" stroke="white" stroke-width="2" stroke-linecap="round" stroke-linejoin="round"/>
<path d="M39.6667 14.3333H43C43.8841 14.3333 44.7319 14.6845 45.357 15.3096C45.9821 15.9348 46.3333 16.7826 46.3333 17.6667V27.6667C46.3333 28.5507 45.9821 29.3986 45.357 30.0237C44.7319 30.6488 43.8841 31 43 31H16.3333C15.4493 31 14.6014 30.6488 13.9763 30.0237C13.3512 29.3986 13 28.5507 13 27.6667V12.6667C13 11.7826 13.3512 10.9348 13.9763 10.3096C14.6014 9.68452 15.4493 9.33333 16.3333 9.33333H19.6667" stroke="white" stroke-width="2" stroke-linecap="round" stroke-linejoin="round"/>
<path d="M39.6666 31V4.33333C39.6666 3.44928 39.3154 2.60143 38.6903 1.97631C38.0652 1.35119 37.2173 1 36.3333 1H23C22.1159 1 21.2681 1.35119 20.6429 1.97631C20.0178 2.60143 19.6666 3.44928 19.6666 4.33333V31" stroke="white" stroke-width="2" stroke-linecap="round" stroke-linejoin="round"/>
</svg>
