<svg width="200" height="80" viewBox="0 0 113 42" fill="none" xmlns="http://www.w3.org/2000/svg">
<path d="M57.2426 34.072C57.2266 34.264 57.2026 34.464 57.1706 34.672C57.1386 34.88 57.0826 35.072 57.0026 35.248C56.9226 35.44 56.8186 35.584 56.6906 35.68C56.5146 35.84 56.3066 35.928 56.0666 35.944C55.8426 36.024 55.6266 36.048 55.4186 36.016C55.2106 35.984 55.0186 35.928 54.8426 35.848C54.6186 35.704 54.4506 35.536 54.3386 35.344C54.2426 35.136 54.1706 34.92 54.1226 34.696C54.0746 34.472 54.0506 34.24 54.0506 34C54.0506 33.76 54.0506 33.536 54.0506 33.328V31.456L54.0266 27.784C54.0266 27.528 54.0266 27.328 54.0266 27.184C54.0266 27.04 54.0266 26.912 54.0266 26.8C54.0266 26.672 54.0186 26.536 54.0026 26.392C54.0026 26.232 54.0026 26.008 54.0026 25.72C54.0026 25.672 54.0026 25.592 54.0026 25.48C54.0186 25.352 54.0106 25.024 53.9786 24.496C53.3546 25.536 52.8346 26.376 52.4186 27.016C52.0186 27.64 51.6746 28.128 51.3866 28.48C51.1146 28.816 50.8746 29.048 50.6666 29.176C50.4586 29.288 50.2426 29.352 50.0186 29.368C49.8906 29.384 49.7626 29.36 49.6346 29.296C49.5066 29.232 49.3786 29.152 49.2506 29.056C49.1386 28.96 49.0266 28.864 48.9146 28.768C48.8186 28.656 48.7386 28.552 48.6746 28.456C48.2906 27.976 47.8586 27.4 47.3786 26.728C46.8986 26.056 46.4026 25.24 45.8906 24.28C45.8906 24.296 45.8826 24.56 45.8666 25.072C45.8666 25.584 45.8666 26.224 45.8666 26.992C45.8666 27.744 45.8586 28.56 45.8426 29.44C45.8426 30.304 45.8346 31.112 45.8186 31.864C45.8186 32.616 45.8106 33.248 45.7946 33.76C45.7786 34.256 45.7626 34.504 45.7466 34.504C45.7466 34.776 45.6826 35.032 45.5546 35.272C45.4266 35.496 45.2506 35.68 45.0266 35.824C44.8186 35.968 44.5706 36.048 44.2826 36.064C43.9946 36.08 43.6826 36 43.3466 35.824C43.1386 35.696 42.9786 35.512 42.8666 35.272C42.7706 35.032 42.7066 34.808 42.6746 34.6C42.6586 34.376 42.6426 34.16 42.6266 33.952C42.6266 33.744 42.6266 33.528 42.6266 33.304L42.6506 31.432L42.6746 27.736V24.52C42.6746 23.128 42.7226 21.76 42.8186 20.416C42.8186 20.24 42.8346 20.08 42.8666 19.936C42.9146 19.776 42.9706 19.624 43.0346 19.48C43.1626 19.224 43.3306 19.032 43.5386 18.904C43.7786 18.76 44.0346 18.688 44.3066 18.688C44.4186 18.688 44.5226 18.696 44.6186 18.712C44.7306 18.712 44.8346 18.72 44.9306 18.736C45.2506 18.8 45.5226 18.992 45.7466 19.312C45.9866 19.616 46.2106 19.88 46.4186 20.104C46.5466 20.248 46.6826 20.424 46.8266 20.632C46.9706 20.84 47.1146 21.056 47.2586 21.28C47.4026 21.504 47.5386 21.72 47.6666 21.928C47.7946 22.136 47.9066 22.32 48.0026 22.48C48.4186 23.152 48.7866 23.768 49.1066 24.328C49.4426 24.888 49.7546 25.368 50.0426 25.768C50.0906 25.72 50.1466 25.656 50.2106 25.576C50.2746 25.48 50.3386 25.384 50.4026 25.288C50.4826 25.176 50.5466 25.072 50.5946 24.976C50.6586 24.88 50.7066 24.8 50.7386 24.736C50.8986 24.48 51.0586 24.232 51.2186 23.992C51.3786 23.736 51.5466 23.472 51.7226 23.2C51.9146 22.912 52.1066 22.6 52.2986 22.264C52.5066 21.928 52.7466 21.544 53.0186 21.112C53.1306 20.92 53.2746 20.688 53.4506 20.416C53.6266 20.144 53.8266 19.88 54.0506 19.624C54.2746 19.368 54.5066 19.152 54.7466 18.976C55.0026 18.784 55.2586 18.688 55.5146 18.688C55.6426 18.688 55.7546 18.696 55.8506 18.712C55.9466 18.712 56.0426 18.72 56.1386 18.736C56.3306 18.752 56.5146 18.84 56.6906 19C56.8186 19.128 56.9146 19.264 56.9786 19.408C57.0426 19.616 57.0826 19.792 57.0986 19.936C57.1146 20.048 57.1226 20.152 57.1226 20.248C57.1386 20.344 57.1466 20.44 57.1466 20.536C57.1466 21.432 57.1546 22.32 57.1706 23.2C57.1866 24.08 57.1946 24.968 57.1946 25.864C57.1946 26.952 57.1946 28.072 57.1946 29.224C57.2106 30.376 57.2186 31.496 57.2186 32.584C57.2186 32.808 57.2266 33.048 57.2426 33.304C57.2586 33.56 57.2586 33.816 57.2426 34.072ZM67.5009 32.512C67.6929 32.464 67.8849 32.432 68.0769 32.416C68.2849 32.4 68.4689 32.424 68.6289 32.488C68.8049 32.552 68.9489 32.664 69.0609 32.824C69.1729 32.968 69.2289 33.176 69.2289 33.448C69.2289 33.64 69.1809 33.824 69.0849 34C68.9889 34.176 68.8689 34.336 68.7249 34.48C68.5809 34.624 68.4209 34.752 68.2449 34.864C68.0689 34.96 67.9009 35.04 67.7409 35.104C67.2769 35.312 66.7409 35.472 66.1329 35.584C65.5409 35.696 64.9249 35.736 64.2849 35.704C63.4209 35.672 62.5889 35.504 61.7889 35.2C61.0049 34.88 60.3889 34.36 59.9409 33.64C59.5249 32.936 59.2769 32.152 59.1969 31.288C59.1169 30.424 59.1569 29.608 59.3169 28.84C59.4929 27.912 59.7889 27.16 60.2049 26.584C60.6369 25.992 61.1489 25.52 61.7409 25.168C62.4609 24.752 63.2689 24.536 64.1649 24.52C65.0609 24.504 65.9169 24.68 66.7329 25.048C67.2769 25.288 67.7649 25.616 68.1969 26.032C68.6289 26.432 68.9569 26.92 69.1809 27.496C69.2449 27.64 69.2929 27.816 69.3249 28.024C69.3729 28.232 69.4049 28.456 69.4209 28.696C69.4369 28.92 69.4369 29.144 69.4209 29.368C69.4049 29.592 69.3649 29.792 69.3009 29.968C69.2049 30.256 69.0849 30.48 68.9409 30.64C68.7969 30.8 68.6129 30.92 68.3889 31C68.1649 31.08 67.8929 31.136 67.5729 31.168C67.2689 31.184 66.9009 31.2 66.4689 31.216C66.0849 31.232 65.7249 31.24 65.3889 31.24C65.0529 31.24 64.7089 31.24 64.3569 31.24C64.0049 31.224 63.6369 31.216 63.2529 31.216C62.8849 31.2 62.4689 31.184 62.0049 31.168C61.9569 31.488 61.9969 31.768 62.1249 32.008C62.2689 32.232 62.4609 32.424 62.7009 32.584C62.9409 32.728 63.2129 32.84 63.5169 32.92C63.8209 33 64.1169 33.048 64.4049 33.064C64.9489 33.096 65.4689 33.056 65.9649 32.944C66.4609 32.816 66.9729 32.672 67.5009 32.512ZM66.4689 27.856C66.1649 27.504 65.8449 27.248 65.5089 27.088C65.2529 26.976 64.9809 26.928 64.6929 26.944C64.4209 26.944 64.1569 26.984 63.9009 27.064C63.4369 27.176 63.0449 27.416 62.7249 27.784C62.6929 27.816 62.6369 27.896 62.5569 28.024C62.4769 28.136 62.3969 28.256 62.3169 28.384C62.2529 28.512 62.2049 28.632 62.1729 28.744C62.1409 28.856 62.1569 28.912 62.2209 28.912H66.9249C66.9089 28.688 66.8689 28.504 66.8049 28.36C66.7409 28.2 66.6289 28.032 66.4689 27.856ZM78.849 19.024C79.153 18.944 79.417 18.936 79.641 19C79.881 19.048 80.081 19.152 80.241 19.312C80.417 19.472 80.545 19.672 80.625 19.912C80.721 20.152 80.769 20.416 80.769 20.704C80.785 21.504 80.785 22.128 80.769 22.576C80.769 23.024 80.769 23.416 80.769 23.752V31.12C80.769 31.984 80.769 32.704 80.769 33.28C80.769 33.856 80.737 34.328 80.673 34.696C80.625 35.048 80.529 35.312 80.385 35.488C80.257 35.664 80.057 35.784 79.785 35.848C79.513 35.928 79.153 35.968 78.705 35.968C78.273 35.968 77.729 35.968 77.073 35.968C75.345 35.968 73.977 35.56 72.969 34.744C71.977 33.928 71.449 32.632 71.385 30.856C71.353 30.088 71.449 29.384 71.673 28.744C71.897 28.104 72.225 27.56 72.657 27.112C73.105 26.648 73.649 26.296 74.289 26.056C74.945 25.8 75.689 25.68 76.521 25.696H77.841V21.4C77.841 21.144 77.841 20.896 77.841 20.656C77.841 20.4 77.865 20.168 77.913 19.96C77.961 19.736 78.057 19.544 78.201 19.384C78.345 19.224 78.561 19.104 78.849 19.024ZM74.673 32.344C75.009 32.808 75.617 33.064 76.497 33.112C76.673 33.128 76.841 33.136 77.001 33.136C77.161 33.12 77.305 33.096 77.433 33.064C77.577 33.048 77.713 33.024 77.841 32.992V28.552C77.281 28.456 76.769 28.4 76.305 28.384C75.857 28.352 75.409 28.512 74.961 28.864C74.721 29.056 74.537 29.304 74.409 29.608C74.281 29.896 74.209 30.208 74.193 30.544C74.177 30.864 74.209 31.184 74.289 31.504C74.369 31.824 74.497 32.104 74.673 32.344ZM85.7288 26.704C85.7288 27.152 85.7288 27.656 85.7288 28.216C85.7448 28.776 85.7528 29.36 85.7528 29.968C85.7528 30.56 85.7528 31.152 85.7528 31.744C85.7528 32.32 85.7448 32.856 85.7288 33.352C85.7128 33.592 85.6888 33.856 85.6568 34.144C85.6248 34.416 85.5608 34.672 85.4648 34.912C85.3688 35.152 85.2168 35.352 85.0088 35.512C84.8168 35.656 84.5528 35.72 84.2168 35.704C83.7208 35.672 83.3608 35.456 83.1368 35.056C82.9288 34.656 82.8088 34.096 82.7768 33.376C82.7768 33.008 82.7688 32.584 82.7528 32.104C82.7528 31.624 82.7448 31.136 82.7288 30.64C82.7288 30.144 82.7288 29.664 82.7288 29.2C82.7288 28.72 82.7288 28.288 82.7288 27.904C82.7288 27.68 82.7208 27.408 82.7048 27.088C82.7048 26.768 82.7128 26.44 82.7288 26.104C82.7448 25.768 82.7848 25.448 82.8488 25.144C82.9128 24.824 83.0168 24.56 83.1608 24.352C83.2728 24.224 83.4328 24.128 83.6408 24.064C83.8488 23.984 84.0648 23.944 84.2888 23.944C84.5288 23.944 84.7528 23.984 84.9608 24.064C85.1848 24.144 85.3448 24.256 85.4408 24.4C85.5048 24.496 85.5528 24.632 85.5848 24.808C85.6168 24.984 85.6408 25.184 85.6568 25.408C85.6888 25.616 85.7048 25.84 85.7048 26.08C85.7208 26.304 85.7288 26.512 85.7288 26.704ZM84.8168 21.856C84.3208 21.984 83.9048 21.936 83.5688 21.712C83.2488 21.472 83.0488 21.12 82.9688 20.656C82.9048 20.32 82.9288 20.024 83.0408 19.768C83.1528 19.512 83.3208 19.32 83.5448 19.192C83.7688 19.048 84.0248 18.984 84.3128 19C84.6008 19.016 84.8888 19.128 85.1768 19.336C85.4488 19.528 85.6408 19.752 85.7528 20.008C85.8808 20.264 85.9208 20.512 85.8728 20.752C85.8408 20.992 85.7368 21.216 85.5608 21.424C85.3848 21.616 85.1368 21.76 84.8168 21.856ZM94.7256 25.648C94.9976 25.728 95.1736 25.88 95.2536 26.104C95.3336 26.312 95.3576 26.536 95.3256 26.776C95.2296 27.272 94.9576 27.576 94.5096 27.688C94.2536 27.752 93.9896 27.784 93.7176 27.784C93.4616 27.784 93.1976 27.792 92.9256 27.808V33.352C92.9256 33.736 92.9016 34.128 92.8536 34.528C92.8536 34.672 92.8136 34.824 92.7336 34.984C92.7016 35.064 92.6776 35.112 92.6616 35.128C92.6616 35.16 92.6456 35.208 92.6136 35.272C92.5176 35.448 92.3896 35.592 92.2296 35.704C91.8776 35.896 91.5016 35.944 91.1016 35.848C90.8616 35.8 90.6776 35.72 90.5496 35.608C90.4056 35.496 90.3016 35.36 90.2376 35.2C90.2056 35.12 90.1816 35.04 90.1656 34.96C90.1496 34.88 90.1256 34.8 90.0936 34.72C90.0776 34.64 90.0616 34.568 90.0456 34.504C90.0456 34.424 90.0456 34.36 90.0456 34.312V32.92C90.0456 32.088 90.0456 31.224 90.0456 30.328C90.0616 29.432 90.0696 28.568 90.0696 27.736C89.7016 27.72 89.3176 27.712 88.9176 27.712C88.5336 27.696 88.2536 27.6 88.0776 27.424C87.9816 27.328 87.9176 27.208 87.8856 27.064C87.8536 26.904 87.8376 26.744 87.8376 26.584C87.8536 26.424 87.8856 26.28 87.9336 26.152C87.9816 26.008 88.0456 25.904 88.1256 25.84C88.3336 25.648 88.5176 25.544 88.6776 25.528C88.8536 25.496 89.0696 25.472 89.3256 25.456C89.3576 25.456 89.4616 25.456 89.6376 25.456C89.8296 25.44 89.9496 25.432 89.9976 25.432C90.0136 24.888 90.0296 24.344 90.0456 23.8C90.0616 23.256 90.1096 22.76 90.1896 22.312C90.2856 21.848 90.4216 21.448 90.5976 21.112C90.7896 20.76 91.0776 20.496 91.4616 20.32C91.9256 20.112 92.4536 19.984 93.0456 19.936C93.6376 19.888 94.1736 19.96 94.6536 20.152C94.8776 20.232 95.0936 20.392 95.3016 20.632C95.5256 20.872 95.6296 21.136 95.6136 21.424C95.5976 21.712 95.5416 21.976 95.4456 22.216C95.3496 22.456 95.1416 22.616 94.8216 22.696C94.6776 22.728 94.5256 22.744 94.3656 22.744C94.2216 22.728 94.0696 22.72 93.9096 22.72C93.7496 22.72 93.5976 22.744 93.4536 22.792C93.3256 22.824 93.2136 22.896 93.1176 23.008C93.0376 23.104 92.9816 23.232 92.9496 23.392C92.9336 23.552 92.9176 23.72 92.9016 23.896C92.8856 24.072 92.8776 24.248 92.8776 24.424C92.8936 24.584 92.9016 24.72 92.9016 24.832V25.432C93.2696 25.464 93.6056 25.488 93.9096 25.504C94.2296 25.52 94.5016 25.568 94.7256 25.648ZM108.58 25.096C108.724 25.32 108.788 25.56 108.772 25.816C108.772 26.184 108.708 26.504 108.58 26.776C108.548 26.856 108.5 26.96 108.436 27.088C108.388 27.216 108.332 27.352 108.268 27.496C108.22 27.64 108.164 27.776 108.1 27.904C108.036 28.032 107.988 28.128 107.956 28.192L107.908 28.312C107.684 28.808 107.468 29.288 107.26 29.752C107.052 30.216 106.82 30.712 106.564 31.24C106.308 31.752 106.06 32.256 105.82 32.752C105.596 33.232 105.372 33.704 105.148 34.168C105.084 34.296 105.028 34.424 104.98 34.552C104.932 34.664 104.868 34.784 104.788 34.912L103.636 37.384C103.428 37.8 103.228 38.208 103.036 38.608C102.86 39.008 102.66 39.408 102.436 39.808C102.388 39.888 102.34 39.96 102.292 40.024C102.26 40.104 102.228 40.184 102.196 40.264C102.084 40.456 101.916 40.64 101.692 40.816C101.484 41.008 101.26 41.112 101.02 41.128C100.588 41.16 100.212 41.032 99.8921 40.744C99.7001 40.632 99.5481 40.472 99.4361 40.264C99.3721 40.12 99.3401 39.936 99.3401 39.712C99.3561 39.616 99.3641 39.52 99.3641 39.424C99.3801 39.344 99.3961 39.264 99.4121 39.184C99.4441 39.104 99.4681 39.024 99.4841 38.944C99.5001 38.864 99.5241 38.8 99.5561 38.752C99.6041 38.624 99.6441 38.56 99.6761 38.56L101.428 34.768C101.348 34.592 101.268 34.416 101.188 34.24C101.108 34.048 101.036 33.88 100.972 33.736C100.764 33.24 100.54 32.72 100.3 32.176C100.076 31.616 99.8441 31.064 99.6041 30.52C99.3641 29.96 99.1161 29.416 98.8601 28.888C98.6041 28.36 98.3481 27.856 98.0921 27.376C97.9961 27.216 97.9081 27.048 97.8281 26.872C97.7481 26.68 97.6841 26.496 97.6361 26.32C97.5881 26.128 97.5721 25.936 97.5881 25.744C97.6041 25.552 97.6761 25.36 97.8041 25.168C97.9321 24.928 98.1001 24.76 98.3081 24.664C98.5161 24.552 98.7321 24.504 98.9561 24.52C99.1961 24.52 99.4201 24.568 99.6281 24.664C99.8361 24.76 100.004 24.888 100.132 25.048C100.404 25.336 100.62 25.656 100.78 26.008C100.94 26.36 101.092 26.72 101.236 27.088C101.54 27.728 101.852 28.4 102.172 29.104C102.492 29.808 102.812 30.496 103.132 31.168L104.38 28.528C104.508 28.272 104.62 28.024 104.716 27.784C104.828 27.544 104.94 27.312 105.052 27.088C105.18 26.816 105.3 26.536 105.412 26.248C105.54 25.96 105.684 25.696 105.844 25.456C105.876 25.392 105.908 25.336 105.94 25.288C105.972 25.24 106.004 25.184 106.036 25.12C106.18 24.928 106.308 24.776 106.42 24.664C106.5 24.6 106.564 24.552 106.612 24.52C106.676 24.472 106.748 24.44 106.828 24.424C106.94 24.392 107.044 24.376 107.14 24.376C107.252 24.36 107.356 24.36 107.452 24.376C107.612 24.424 107.804 24.496 108.028 24.592C108.268 24.688 108.452 24.856 108.58 25.096Z" fill="white"/>
<path d="M20.3333 8.73333V16.4667" stroke="white" stroke-width="2" stroke-linecap="round" stroke-linejoin="round"/>
<path d="M24.1999 35.8V30C24.1999 28.9745 23.7925 27.991 23.0674 27.2658C22.3422 26.5407 21.3587 26.1333 20.3332 26.1333C19.3077 26.1333 18.3242 26.5407 17.5991 27.2658C16.8739 27.991 16.4666 28.9745 16.4666 30V35.8" stroke="white" stroke-width="2" stroke-linecap="round" stroke-linejoin="round"/>
<path d="M24.1999 12.6H16.4666" stroke="white" stroke-width="2" stroke-linecap="round" stroke-linejoin="round"/>
<path d="M31.9333 16.4666H35.8C36.8255 16.4666 37.809 16.874 38.5341 17.5992C39.2592 18.3243 39.6666 19.3078 39.6666 20.3333V31.9333C39.6666 32.9588 39.2592 33.9423 38.5341 34.6674C37.809 35.3926 36.8255 35.8 35.8 35.8H4.86666C3.84116 35.8 2.85766 35.3926 2.13252 34.6674C1.40738 33.9423 1 32.9588 1 31.9333V14.5333C1 13.5078 1.40738 12.5243 2.13252 11.7992C2.85766 11.074 3.84116 10.6667 4.86666 10.6667H8.73333" stroke="white" stroke-width="2" stroke-linecap="round" stroke-linejoin="round"/>
<path d="M31.9333 35.8V4.86666C31.9333 3.84116 31.5259 2.85766 30.8007 2.13252C30.0756 1.40738 29.0921 1 28.0666 1H12.5999C11.5744 1 10.5909 1.40738 9.8658 2.13252C9.14066 2.85766 8.73328 3.84116 8.73328 4.86666V35.8" stroke="white" stroke-width="2" stroke-linecap="round" stroke-linejoin="round"/>
</svg>
